<svg width="40" height="40" viewBox="0 0 40 40" fill="none" xmlns="http://www.w3.org/2000/svg">
<path d="M23.333 13.334H24.9997C25.4417 13.334 25.8656 13.1584 26.1782 12.8458C26.4907 12.5333 26.6663 12.1093 26.6663 11.6673C26.6663 11.2253 26.4907 10.8014 26.1782 10.4888C25.8656 10.1762 25.4417 10.0007 24.9997 10.0007H23.333C22.891 10.0007 22.4671 10.1762 22.1545 10.4888C21.8419 10.8014 21.6663 11.2253 21.6663 11.6673C21.6663 12.1093 21.8419 12.5333 22.1545 12.8458C22.4671 13.1584 22.891 13.334 23.333 13.334ZM23.333 20.0007H24.9997C25.4417 20.0007 25.8656 19.8251 26.1782 19.5125C26.4907 19.1999 26.6663 18.776 26.6663 18.334C26.6663 17.892 26.4907 17.468 26.1782 17.1555C25.8656 16.8429 25.4417 16.6673 24.9997 16.6673H23.333C22.891 16.6673 22.4671 16.8429 22.1545 17.1555C21.8419 17.468 21.6663 17.892 21.6663 18.334C21.6663 18.776 21.8419 19.1999 22.1545 19.5125C22.4671 19.8251 22.891 20.0007 23.333 20.0007ZM14.9997 13.334H16.6663C17.1084 13.334 17.5323 13.1584 17.8449 12.8458C18.1574 12.5333 18.333 12.1093 18.333 11.6673C18.333 11.2253 18.1574 10.8014 17.8449 10.4888C17.5323 10.1762 17.1084 10.0007 16.6663 10.0007H14.9997C14.5576 10.0007 14.1337 10.1762 13.8212 10.4888C13.5086 10.8014 13.333 11.2253 13.333 11.6673C13.333 12.1093 13.5086 12.5333 13.8212 12.8458C14.1337 13.1584 14.5576 13.334 14.9997 13.334ZM14.9997 20.0007H16.6663C17.1084 20.0007 17.5323 19.8251 17.8449 19.5125C18.1574 19.1999 18.333 18.776 18.333 18.334C18.333 17.892 18.1574 17.468 17.8449 17.1555C17.5323 16.8429 17.1084 16.6673 16.6663 16.6673H14.9997C14.5576 16.6673 14.1337 16.8429 13.8212 17.1555C13.5086 17.468 13.333 17.892 13.333 18.334C13.333 18.776 13.5086 19.1999 13.8212 19.5125C14.1337 19.8251 14.5576 20.0007 14.9997 20.0007ZM34.9997 33.334H33.333V5.00065C33.333 4.55862 33.1574 4.1347 32.8449 3.82214C32.5323 3.50958 32.1084 3.33398 31.6663 3.33398H8.33301C7.89098 3.33398 7.46706 3.50958 7.1545 3.82214C6.84194 4.1347 6.66634 4.55862 6.66634 5.00065V33.334H4.99967C4.55765 33.334 4.13372 33.5096 3.82116 33.8221C3.5086 34.1347 3.33301 34.5586 3.33301 35.0007C3.33301 35.4427 3.5086 35.8666 3.82116 36.1792C4.13372 36.4917 4.55765 36.6673 4.99967 36.6673H34.9997C35.4417 36.6673 35.8656 36.4917 36.1782 36.1792C36.4907 35.8666 36.6663 35.4427 36.6663 35.0007C36.6663 34.5586 36.4907 34.1347 36.1782 33.8221C35.8656 33.5096 35.4417 33.334 34.9997 33.334ZM21.6663 33.334H18.333V26.6673H21.6663V33.334ZM29.9997 33.334H24.9997V25.0007C24.9997 24.5586 24.8241 24.1347 24.5115 23.8221C24.199 23.5096 23.775 23.334 23.333 23.334H16.6663C16.2243 23.334 15.8004 23.5096 15.4878 23.8221C15.1753 24.1347 14.9997 24.5586 14.9997 25.0007V33.334H9.99967V6.66732H29.9997V33.334Z" fill="white"/>
</svg>
