<svg width="40" height="40" viewBox="0 0 40 40" fill="none" xmlns="http://www.w3.org/2000/svg">
<path fill-rule="evenodd" clip-rule="evenodd" d="M13.3333 25.0007C12.4167 25.0007 11.6667 24.2507 11.6667 23.334C11.6667 22.4173 12.4167 21.6673 13.3333 21.6673C14.25 21.6673 15 22.4173 15 23.334C15 24.2507 14.25 25.0007 13.3333 25.0007ZM20 25.0007C19.0833 25.0007 18.3333 24.2507 18.3333 23.334C18.3333 22.4173 19.0833 21.6673 20 21.6673C20.9167 21.6673 21.6667 22.4173 21.6667 23.334C21.6667 24.2507 20.9167 25.0007 20 25.0007ZM25 23.334C25 24.2507 25.75 25.0007 26.6667 25.0007C27.5833 25.0007 28.3333 24.2507 28.3333 23.334C28.3333 22.4173 27.5833 21.6673 26.6667 21.6673C25.75 21.6673 25 22.4173 25 23.334ZM13.3333 30.0007C12.4167 30.0007 11.6667 29.2507 11.6667 28.334C11.6667 27.4173 12.4167 26.6673 13.3333 26.6673C14.25 26.6673 15 27.4173 15 28.334C15 29.2507 14.25 30.0007 13.3333 30.0007ZM18.3333 28.334C18.3333 29.2507 19.0833 30.0007 20 30.0007C20.9167 30.0007 21.6667 29.2507 21.6667 28.334C21.6667 27.4173 20.9167 26.6673 20 26.6673C19.0833 26.6673 18.3333 27.4173 18.3333 28.334ZM26.6667 30.0007C25.75 30.0007 25 29.2507 25 28.334C25 27.4173 25.75 26.6673 26.6667 26.6673C27.5833 26.6673 28.3333 27.4173 28.3333 28.334C28.3333 29.2507 27.5833 30.0007 26.6667 30.0007ZM10 33.334C9.08167 33.334 8.33333 32.5857 8.33333 31.6673V19.1673H31.6667V31.6673C31.6667 32.5857 30.9183 33.334 30 33.334H10ZM11.6667 10.0007V11.6673C11.6667 12.584 12.4167 13.334 13.3333 13.334C14.25 13.334 15 12.584 15 11.6673V10.0007H25V11.6673C25 12.584 25.75 13.334 26.6667 13.334C27.5833 13.334 28.3333 12.584 28.3333 11.6673V10.0007H30C30.9183 10.0007 31.6667 10.749 31.6667 11.6673V15.834H8.33333V11.6673C8.33333 10.749 9.08167 10.0007 10 10.0007H11.6667ZM28.3333 6.66732V5.00065C28.3333 4.08398 27.5833 3.33398 26.6667 3.33398C25.75 3.33398 25 4.08398 25 5.00065V6.66732H15V5.00065C15 4.08398 14.25 3.33398 13.3333 3.33398C12.4167 3.33398 11.6667 4.08398 11.6667 5.00065V6.66732H10C7.24333 6.66732 5 8.91065 5 11.6673V31.6673C5 34.424 7.24333 36.6673 10 36.6673H30C32.7567 36.6673 35 34.424 35 31.6673V11.6673C35 8.91065 32.7567 6.66732 30 6.66732H28.3333Z" fill="white"/>
<mask id="mask0_1903_18492" style="mask-type:alpha" maskUnits="userSpaceOnUse" x="5" y="3" width="30" height="34">
<path fill-rule="evenodd" clip-rule="evenodd" d="M13.3333 25.0007C12.4167 25.0007 11.6667 24.2507 11.6667 23.334C11.6667 22.4173 12.4167 21.6673 13.3333 21.6673C14.25 21.6673 15 22.4173 15 23.334C15 24.2507 14.25 25.0007 13.3333 25.0007ZM20 25.0007C19.0833 25.0007 18.3333 24.2507 18.3333 23.334C18.3333 22.4173 19.0833 21.6673 20 21.6673C20.9167 21.6673 21.6667 22.4173 21.6667 23.334C21.6667 24.2507 20.9167 25.0007 20 25.0007ZM25 23.334C25 24.2507 25.75 25.0007 26.6667 25.0007C27.5833 25.0007 28.3333 24.2507 28.3333 23.334C28.3333 22.4173 27.5833 21.6673 26.6667 21.6673C25.75 21.6673 25 22.4173 25 23.334ZM13.3333 30.0007C12.4167 30.0007 11.6667 29.2507 11.6667 28.334C11.6667 27.4173 12.4167 26.6673 13.3333 26.6673C14.25 26.6673 15 27.4173 15 28.334C15 29.2507 14.25 30.0007 13.3333 30.0007ZM18.3333 28.334C18.3333 29.2507 19.0833 30.0007 20 30.0007C20.9167 30.0007 21.6667 29.2507 21.6667 28.334C21.6667 27.4173 20.9167 26.6673 20 26.6673C19.0833 26.6673 18.3333 27.4173 18.3333 28.334ZM26.6667 30.0007C25.75 30.0007 25 29.2507 25 28.334C25 27.4173 25.75 26.6673 26.6667 26.6673C27.5833 26.6673 28.3333 27.4173 28.3333 28.334C28.3333 29.2507 27.5833 30.0007 26.6667 30.0007ZM10 33.334C9.08167 33.334 8.33333 32.5857 8.33333 31.6673V19.1673H31.6667V31.6673C31.6667 32.5857 30.9183 33.334 30 33.334H10ZM11.6667 10.0007V11.6673C11.6667 12.584 12.4167 13.334 13.3333 13.334C14.25 13.334 15 12.584 15 11.6673V10.0007H25V11.6673C25 12.584 25.75 13.334 26.6667 13.334C27.5833 13.334 28.3333 12.584 28.3333 11.6673V10.0007H30C30.9183 10.0007 31.6667 10.749 31.6667 11.6673V15.834H8.33333V11.6673C8.33333 10.749 9.08167 10.0007 10 10.0007H11.6667ZM28.3333 6.66732V5.00065C28.3333 4.08398 27.5833 3.33398 26.6667 3.33398C25.75 3.33398 25 4.08398 25 5.00065V6.66732H15V5.00065C15 4.08398 14.25 3.33398 13.3333 3.33398C12.4167 3.33398 11.6667 4.08398 11.6667 5.00065V6.66732H10C7.24333 6.66732 5 8.91065 5 11.6673V31.6673C5 34.424 7.24333 36.6673 10 36.6673H30C32.7567 36.6673 35 34.424 35 31.6673V11.6673C35 8.91065 32.7567 6.66732 30 6.66732H28.3333Z" fill="white"/>
</mask>
<g mask="url(#mask0_1903_18492)">
</g>
</svg>
