<svg width="40" height="40" viewBox="0 0 40 40" fill="none" xmlns="http://www.w3.org/2000/svg">
<path fill-rule="evenodd" clip-rule="evenodd" d="M28.2551 35.2015H34.4746L34.4954 19.2638L19.9305 5.57889L5.38653 19.1857L5.37405 35.2015H11.6143V21.882C11.6143 20.8298 12.5441 19.9792 13.6944 19.9792H26.175C27.3232 19.9792 28.2551 20.8298 28.2551 21.882V35.2015ZM24.0949 35.2015H15.7745V23.7848H24.0949V35.2015ZM37.4574 16.5257L21.422 1.52404C20.6378 0.791466 19.2316 0.791466 18.4474 1.52404L2.40992 16.5276C1.65069 17.2411 1.21387 18.2382 1.21387 19.2638V35.2015C1.21387 37.3003 2.97571 39.0071 5.14108 39.0071H13.6944H26.175H34.7263C36.8916 39.0071 38.6555 37.3003 38.6555 35.2015V19.2638C38.6555 18.2382 38.2187 17.2411 37.4574 16.5257Z" fill="white"/>
</svg>
