<svg width="40" height="40" viewBox="0 0 40 40" fill="none" xmlns="http://www.w3.org/2000/svg">
<path d="M24.6488 15.7137C25.5013 15.7137 26.3189 16.0524 26.9217 16.6552C27.5245 17.258 27.8631 18.0755 27.8631 18.928V27.8552C27.8631 29.9394 27.0352 31.9382 25.5614 33.412C24.0876 34.8858 22.0888 35.7137 20.0046 35.7137C17.9203 35.7137 15.9215 34.8858 14.4477 33.412C12.9739 31.9382 12.146 29.9394 12.146 27.8552V18.928C12.146 18.0755 12.4846 17.258 13.0874 16.6552C13.6902 16.0524 14.5078 15.7137 15.3603 15.7137H24.6488ZM24.6488 17.8566H15.3603C15.0761 17.8566 14.8036 17.9695 14.6027 18.1704C14.4017 18.3713 14.2888 18.6439 14.2888 18.928V27.8552C14.2888 29.3711 14.891 30.8249 15.9629 31.8968C17.0348 32.9687 18.4887 33.5709 20.0046 33.5709C21.5205 33.5709 22.9743 32.9687 24.0462 31.8968C25.1181 30.8249 25.7203 29.3711 25.7203 27.8552V18.928C25.7203 18.6439 25.6074 18.3713 25.4065 18.1704C25.2055 17.9695 24.933 17.8566 24.6488 17.8566ZM6.07171 15.7137H12.0089C11.4353 16.3109 11.0323 17.0508 10.8417 17.8566H6.07171C5.78755 17.8566 5.51503 17.9695 5.31409 18.1704C5.11316 18.3713 5.00028 18.6439 5.00028 18.928V26.4266C5.00009 27.1434 5.17962 27.8488 5.52246 28.4783C5.8653 29.1077 6.3605 29.6412 6.96276 30.0299C7.56503 30.4186 8.25513 30.65 8.96996 30.7031C9.68478 30.7562 10.4015 30.6292 11.0546 30.3337C11.2446 31.0337 11.5174 31.6994 11.8603 32.3223C10.8815 32.7496 9.81173 32.9265 8.74752 32.8368C7.68331 32.7471 6.65819 32.3938 5.76475 31.8087C4.8713 31.2236 4.13765 30.4252 3.63007 29.4855C3.12248 28.5459 2.85694 27.4946 2.85742 26.4266V18.928C2.85742 18.0755 3.19607 17.258 3.79886 16.6552C4.40166 16.0524 5.21923 15.7137 6.07171 15.7137ZM33.9288 15.7137C34.7813 15.7137 35.5989 16.0524 36.2017 16.6552C36.8045 17.258 37.1431 18.0755 37.1431 18.928V26.428C37.1436 27.4954 36.8782 28.5461 36.371 29.4853C35.8638 30.4244 35.1308 31.2225 34.238 31.8076C33.3453 32.3926 32.3209 32.7461 31.2573 32.8362C30.1937 32.9263 29.1245 32.7502 28.146 32.3237L28.226 32.178C28.5317 31.598 28.7788 30.9823 28.956 30.3366C29.6087 30.6303 30.3246 30.7558 31.0383 30.7018C31.7519 30.6477 32.4407 30.4158 33.0418 30.0271C33.6428 29.6385 34.1369 29.1055 34.479 28.4768C34.8211 27.8481 35.0003 27.1438 35.0003 26.428V18.928C35.0003 18.6441 34.8876 18.3718 34.687 18.1709C34.4863 17.97 34.2142 17.857 33.9303 17.8566H29.1688C28.9779 17.0507 28.5744 16.3107 28.0003 15.7137H33.9303H33.9288ZM20.0003 4.28516C20.6569 4.28516 21.3071 4.41448 21.9137 4.66576C22.5203 4.91703 23.0715 5.28533 23.5358 5.74962C24.0001 6.21392 24.3684 6.76511 24.6197 7.37174C24.8709 7.97837 25.0003 8.62855 25.0003 9.28516C25.0003 9.94177 24.8709 10.5919 24.6197 11.1986C24.3684 11.8052 24.0001 12.3564 23.5358 12.8207C23.0715 13.285 22.5203 13.6533 21.9137 13.9046C21.3071 14.1558 20.6569 14.2852 20.0003 14.2852C18.6742 14.2852 17.4024 13.7584 16.4647 12.8207C15.5271 11.883 15.0003 10.6112 15.0003 9.28516C15.0003 7.95907 15.5271 6.6873 16.4647 5.74962C17.4024 4.81194 18.6742 4.28516 20.0003 4.28516ZM31.4331 5.71373C31.9959 5.71373 32.5532 5.82458 33.0732 6.03996C33.5932 6.25534 34.0656 6.57102 34.4636 6.96898C34.8616 7.36695 35.1772 7.8394 35.3926 8.35937C35.608 8.87934 35.7188 9.43663 35.7188 9.99944C35.7188 10.5623 35.608 11.1195 35.3926 11.6395C35.1772 12.1595 34.8616 12.6319 34.4636 13.0299C34.0656 13.4279 33.5932 13.7435 33.0732 13.9589C32.5532 14.1743 31.9959 14.2852 31.4331 14.2852C30.2965 14.2852 29.2064 13.8336 28.4027 13.0299C27.5989 12.2262 27.1474 11.1361 27.1474 9.99944C27.1474 8.8628 27.5989 7.77271 28.4027 6.96898C29.2064 6.16526 30.2965 5.71373 31.4331 5.71373ZM8.56742 5.71373C9.13023 5.71373 9.68753 5.82458 10.2075 6.03996C10.7275 6.25534 11.1999 6.57102 11.5979 6.96898C11.9958 7.36695 12.3115 7.8394 12.5269 8.35937C12.7423 8.87934 12.8531 9.43663 12.8531 9.99944C12.8531 10.5623 12.7423 11.1195 12.5269 11.6395C12.3115 12.1595 11.9958 12.6319 11.5979 13.0299C11.1999 13.4279 10.7275 13.7435 10.2075 13.9589C9.68753 14.1743 9.13023 14.2852 8.56742 14.2852C7.43078 14.2852 6.34069 13.8336 5.53696 13.0299C4.73324 12.2262 4.28171 11.1361 4.28171 9.99944C4.28171 8.8628 4.73324 7.77271 5.53696 6.96898C6.34069 6.16526 7.43078 5.71373 8.56742 5.71373ZM20.0003 6.42801C19.2425 6.42801 18.5158 6.72903 17.98 7.26485C17.4442 7.80067 17.1431 8.52739 17.1431 9.28516C17.1431 10.0429 17.4442 10.7696 17.98 11.3055C18.5158 11.8413 19.2425 12.1423 20.0003 12.1423C20.758 12.1423 21.4848 11.8413 22.0206 11.3055C22.5564 10.7696 22.8574 10.0429 22.8574 9.28516C22.8574 8.52739 22.5564 7.80067 22.0206 7.26485C21.4848 6.72903 20.758 6.42801 20.0003 6.42801ZM31.4331 7.85659C31.1517 7.85658 30.8731 7.91201 30.6131 8.0197C30.3531 8.12739 30.1169 8.28523 29.9179 8.48421C29.7189 8.6832 29.5611 8.91942 29.4534 9.17941C29.3457 9.43939 29.2903 9.71804 29.2903 9.99944C29.2903 10.2808 29.3457 10.5595 29.4534 10.8195C29.5611 11.0795 29.7189 11.3157 29.9179 11.5147C30.1169 11.7137 30.3531 11.8715 30.6131 11.9792C30.8731 12.0869 31.1517 12.1423 31.4331 12.1423C32.0015 12.1423 32.5465 11.9165 32.9484 11.5147C33.3502 11.1128 33.576 10.5678 33.576 9.99944C33.576 9.43112 33.3502 8.88608 32.9484 8.48421C32.5465 8.08235 32.0015 7.85659 31.4331 7.85659ZM8.56742 7.85659C8.28602 7.85658 8.00737 7.91201 7.74739 8.0197C7.4874 8.12739 7.25118 8.28523 7.05219 8.48421C6.85321 8.6832 6.69537 8.91942 6.58768 9.17941C6.47999 9.43939 6.42456 9.71804 6.42456 9.99944C6.42456 10.2808 6.47999 10.5595 6.58768 10.8195C6.69537 11.0795 6.85321 11.3157 7.05219 11.5147C7.25118 11.7137 7.4874 11.8715 7.74739 11.9792C8.00737 12.0869 8.28602 12.1423 8.56742 12.1423C9.13574 12.1423 9.68079 11.9165 10.0827 11.5147C10.4845 11.1128 10.7103 10.5678 10.7103 9.99944C10.7103 9.43112 10.4845 8.88608 10.0827 8.48421C9.68079 8.08235 9.13574 7.85659 8.56742 7.85659Z" fill="white"/>
</svg>
