<svg width="40" height="40" viewBox="0 0 40 40" fill="none" xmlns="http://www.w3.org/2000/svg">
<g clip-path="url(#clip0_1903_18453)">
<path d="M20 25C22.7614 25 25 22.7614 25 20C25 17.2386 22.7614 15 20 15C17.2386 15 15 17.2386 15 20C15 22.7614 17.2386 25 20 25Z" stroke="white" stroke-width="2" stroke-linecap="round" stroke-linejoin="round"/>
<path d="M32.3337 24.9994C32.1118 25.502 32.0456 26.0597 32.1437 26.6003C32.2417 27.141 32.4994 27.6399 32.8837 28.0327L32.9837 28.1327C33.2936 28.4423 33.5394 28.8099 33.7072 29.2145C33.8749 29.6192 33.9613 30.053 33.9613 30.491C33.9613 30.9291 33.8749 31.3628 33.7072 31.7675C33.5394 32.1721 33.2936 32.5398 32.9837 32.8493C32.6741 33.1593 32.3065 33.4051 31.9018 33.5729C31.4971 33.7406 31.0634 33.827 30.6253 33.827C30.1873 33.827 29.7535 33.7406 29.3489 33.5729C28.9442 33.4051 28.5766 33.1593 28.267 32.8493L28.167 32.7493C27.7742 32.3651 27.2753 32.1074 26.7346 32.0093C26.194 31.9113 25.6364 31.9775 25.1337 32.1993C24.6407 32.4106 24.2203 32.7614 23.9242 33.2086C23.628 33.6557 23.4691 34.1797 23.467 34.716V34.9994C23.467 35.8834 23.1158 36.7313 22.4907 37.3564C21.8656 37.9815 21.0177 38.3327 20.1337 38.3327C19.2496 38.3327 18.4018 37.9815 17.7766 37.3564C17.1515 36.7313 16.8003 35.8834 16.8003 34.9994V34.8494C16.7874 34.2977 16.6089 33.7627 16.2878 33.3139C15.9668 32.865 15.5182 32.5232 15.0003 32.3327C14.4976 32.1108 13.94 32.0446 13.3993 32.1427C12.8587 32.2407 12.3598 32.4985 11.967 32.8827L11.867 32.9827C11.5574 33.2926 11.1898 33.5385 10.7851 33.7062C10.3805 33.874 9.94671 33.9603 9.50866 33.9603C9.07061 33.9603 8.63685 33.874 8.23219 33.7062C7.82753 33.5385 7.4599 33.2926 7.15033 32.9827C6.8404 32.6731 6.59454 32.3055 6.42679 31.9008C6.25905 31.4962 6.1727 31.0624 6.1727 30.6244C6.1727 30.1863 6.25905 29.7525 6.42679 29.3479C6.59454 28.9432 6.8404 28.5756 7.15033 28.266L7.25033 28.166C7.63455 27.7732 7.8923 27.2743 7.99033 26.7337C8.08836 26.193 8.02218 25.6354 7.80033 25.1327C7.58905 24.6397 7.23825 24.2193 6.7911 23.9232C6.34395 23.6271 5.81997 23.4682 5.28366 23.466H5.00033C4.11627 23.466 3.26842 23.1148 2.6433 22.4897C2.01818 21.8646 1.66699 21.0167 1.66699 20.1327C1.66699 19.2486 2.01818 18.4008 2.6433 17.7757C3.26842 17.1505 4.11627 16.7993 5.00033 16.7993H5.15033C5.70198 16.7864 6.237 16.6079 6.68582 16.2869C7.13465 15.9659 7.47652 15.5172 7.66699 14.9993C7.88885 14.4967 7.95503 13.939 7.857 13.3984C7.75897 12.8577 7.50122 12.3588 7.11699 11.966L7.01699 11.866C6.70707 11.5564 6.46121 11.1888 6.29346 10.7842C6.12571 10.3795 6.03937 9.94573 6.03937 9.50768C6.03937 9.06963 6.12571 8.63588 6.29346 8.23121C6.46121 7.82655 6.70707 7.45893 7.01699 7.14935C7.32657 6.83943 7.6942 6.59356 8.09886 6.42582C8.50352 6.25807 8.93727 6.17173 9.37533 6.17173C9.81338 6.17173 10.2471 6.25807 10.6518 6.42582C11.0565 6.59356 11.4241 6.83943 11.7337 7.14935L11.8337 7.24935C12.2265 7.63358 12.7254 7.89133 13.266 7.98936C13.8067 8.08739 14.3643 8.02121 14.867 7.79935H15.0003C15.4933 7.58808 15.9137 7.23727 16.2098 6.79012C16.5059 6.34297 16.6649 5.81899 16.667 5.28268V4.99935C16.667 4.11529 17.0182 3.26745 17.6433 2.64233C18.2684 2.01721 19.1163 1.66602 20.0003 1.66602C20.8844 1.66602 21.7322 2.01721 22.3573 2.64233C22.9825 3.26745 23.3337 4.11529 23.3337 4.99935V5.14935C23.3358 5.68566 23.4947 6.20964 23.7908 6.65679C24.087 7.10394 24.5074 7.45474 25.0003 7.66602C25.503 7.88787 26.0606 7.95405 26.6013 7.85602C27.142 7.75799 27.6409 7.50024 28.0337 7.11602L28.1337 7.01602C28.4432 6.70609 28.8109 6.46023 29.2155 6.29248C29.6202 6.12474 30.0539 6.03839 30.492 6.03839C30.93 6.03839 31.3638 6.12474 31.7685 6.29248C32.1731 6.46023 32.5407 6.70609 32.8503 7.01602C33.1602 7.32559 33.4061 7.69322 33.5739 8.09788C33.7416 8.50254 33.8279 8.9363 33.8279 9.37435C33.8279 9.8124 33.7416 10.2462 33.5739 10.6508C33.4061 11.0555 33.1602 11.4231 32.8503 11.7327L32.7503 11.8327C32.3661 12.2255 32.1084 12.7244 32.0103 13.265C31.9123 13.8057 31.9785 14.3633 32.2003 14.866V14.9993C32.4116 15.4923 32.7624 15.9127 33.2096 16.2088C33.6567 16.505 34.1807 16.6639 34.717 16.666H35.0003C35.8844 16.666 36.7322 17.0172 37.3573 17.6423C37.9825 18.2674 38.3337 19.1153 38.3337 19.9993C38.3337 20.8834 37.9825 21.7313 37.3573 22.3564C36.7322 22.9815 35.8844 23.3327 35.0003 23.3327H34.8503C34.314 23.3348 33.79 23.4937 33.3429 23.7899C32.8957 24.086 32.5449 24.5064 32.3337 24.9994V24.9994Z" stroke="white" stroke-width="2" stroke-linecap="round" stroke-linejoin="round"/>
</g>
<defs>
<clipPath id="clip0_1903_18453">
<rect width="40" height="40" fill="white"/>
</clipPath>
</defs>
</svg>
