<svg width="40" height="40" viewBox="0 0 40 40" fill="none" xmlns="http://www.w3.org/2000/svg">
<path d="M8 8C8 6.93913 8.42143 5.92172 9.17157 5.17157C9.92172 4.42143 10.9391 4 12 4H28C29.0609 4 30.0783 4.42143 30.8284 5.17157C31.5786 5.92172 32 6.93913 32 8V27.766L30 29.786V8C30 7.46957 29.7893 6.96086 29.4142 6.58579C29.0391 6.21071 28.5304 6 28 6H12C11.4696 6 10.9609 6.21071 10.5858 6.58579C10.2107 6.96086 10 7.46957 10 8V32C10 32.5304 10.2107 33.0391 10.5858 33.4142C10.9609 33.7893 11.4696 34 12 34H20.17C20.312 34.4 20.54 34.778 20.858 35.1L21.74 36H12C10.9391 36 9.92172 35.5786 9.17157 34.8284C8.42143 34.0783 8 33.0609 8 32V8ZM16 11C16 11.5304 15.7893 12.0391 15.4142 12.4142C15.0391 12.7893 14.5304 13 14 13C13.4696 13 12.9609 12.7893 12.5858 12.4142C12.2107 12.0391 12 11.5304 12 11C12 10.4696 12.2107 9.96086 12.5858 9.58579C12.9609 9.21071 13.4696 9 14 9C14.5304 9 15.0391 9.21071 15.4142 9.58579C15.7893 9.96086 16 10.4696 16 11ZM19 10C18.7348 10 18.4804 10.1054 18.2929 10.2929C18.1054 10.4804 18 10.7348 18 11C18 11.2652 18.1054 11.5196 18.2929 11.7071C18.4804 11.8946 18.7348 12 19 12H27C27.2652 12 27.5196 11.8946 27.7071 11.7071C27.8946 11.5196 28 11.2652 28 11C28 10.7348 27.8946 10.4804 27.7071 10.2929C27.5196 10.1054 27.2652 10 27 10H19ZM19 18C18.7348 18 18.4804 18.1054 18.2929 18.2929C18.1054 18.4804 18 18.7348 18 19C18 19.2652 18.1054 19.5196 18.2929 19.7071C18.4804 19.8946 18.7348 20 19 20H27C27.2652 20 27.5196 19.8946 27.7071 19.7071C27.8946 19.5196 28 19.2652 28 19C28 18.7348 27.8946 18.4804 27.7071 18.2929C27.5196 18.1054 27.2652 18 27 18H19ZM18 27C18 26.7348 18.1054 26.4804 18.2929 26.2929C18.4804 26.1054 18.7348 26 19 26H27C27.2652 26 27.5196 26.1054 27.7071 26.2929C27.8946 26.4804 28 26.7348 28 27C28 27.2652 27.8946 27.5196 27.7071 27.7071C27.5196 27.8946 27.2652 28 27 28H19C18.7348 28 18.4804 27.8946 18.2929 27.7071C18.1054 27.5196 18 27.2652 18 27ZM14 21C14.5304 21 15.0391 20.7893 15.4142 20.4142C15.7893 20.0391 16 19.5304 16 19C16 18.4696 15.7893 17.9609 15.4142 17.5858C15.0391 17.2107 14.5304 17 14 17C13.4696 17 12.9609 17.2107 12.5858 17.5858C12.2107 17.9609 12 18.4696 12 19C12 19.5304 12.2107 20.0391 12.5858 20.4142C12.9609 20.7893 13.4696 21 14 21ZM14 29C14.5304 29 15.0391 28.7893 15.4142 28.4142C15.7893 28.0391 16 27.5304 16 27C16 26.4696 15.7893 25.9609 15.4142 25.5858C15.0391 25.2107 14.5304 25 14 25C13.4696 25 12.9609 25.2107 12.5858 25.5858C12.2107 25.9609 12 26.4696 12 27C12 27.5304 12.2107 28.0391 12.5858 28.4142C12.9609 28.7893 13.4696 29 14 29ZM35.71 29.704C35.8915 29.5147 35.9914 29.2616 35.9881 28.9993C35.9847 28.737 35.8785 28.4866 35.6922 28.3019C35.506 28.1172 35.2546 28.0131 34.9923 28.012C34.73 28.0109 34.4778 28.1129 34.29 28.296L27.004 35.656L23.714 32.3C23.6226 32.2041 23.513 32.1272 23.3916 32.074C23.2703 32.0208 23.1395 31.9922 23.007 31.9899C22.8745 31.9877 22.7429 32.0118 22.6198 32.0608C22.4967 32.1099 22.3846 32.183 22.2899 32.2757C22.1953 32.3685 22.1201 32.4792 22.0686 32.6013C22.0171 32.7234 21.9904 32.8545 21.99 32.987C21.9896 33.1196 22.0156 33.2508 22.0664 33.3732C22.1172 33.4956 22.1919 33.6067 22.286 33.7L26.144 37.636C26.2554 37.7496 26.3883 37.84 26.5349 37.9018C26.6816 37.9636 26.839 37.9956 26.9982 37.996C27.1573 37.9964 27.3149 37.9651 27.4618 37.904C27.6088 37.8429 27.7421 37.7531 27.854 37.64L35.71 29.704Z" fill="white"/>
</svg>
